<svg width="55" height="52" viewBox="0 0 55 52" fill="none" xmlns="http://www.w3.org/2000/svg">
<path d="M25.2928 2.07362C26.6432 1.33082 28.2799 1.33082 29.6303 2.07362L47.7742 12.0535C49.2121 12.8444 50.1054 14.3554 50.1054 15.9964V35.5442C50.1054 37.1853 49.2121 38.6962 47.7742 39.4871L29.6303 49.467C28.2799 50.2098 26.6432 50.2098 25.2928 49.467L7.14891 39.4871C5.71101 38.6962 4.81767 37.1853 4.81767 35.5442V15.9964C4.81767 14.3554 5.71102 12.8444 7.14891 12.0535L25.2928 2.07362Z" stroke="black"/>
<path d="M25.0344 18.4062L31.6605 24.6275C32.32 25.2467 32.32 26.294 31.6605 26.9132L25.0344 33.1345" stroke="black" stroke-linecap="round"/>
</svg>
